Coordinates
version=1
nRows=14
nColumns=40
inDegrees=yes

Units are S.I. units (second, meters, Newtons, ...)
If the header above contains a line with 'inDegrees', this indicates whether rotational values are in degrees (yes) or radians (no).

endheader
time	pelvis_tilt	pelvis_list	pelvis_rotation	pelvis_tx	pelvis_ty	pelvis_tz	hip_flexion_r	hip_adduction_r	hip_rotation_r	knee_angle_r	knee_angle_r_beta	ankle_angle_r	subtalar_angle_r	mtp_angle_r	hip_flexion_l	hip_adduction_l	hip_rotation_l	knee_angle_l	knee_angle_l_beta	ankle_angle_l	subtalar_angle_l	mtp_angle_l	lumbar_extension	lumbar_bending	lumbar_rotation	arm_flex_r	arm_add_r	arm_rot_r	elbow_flex_r	pro_sup_r	wrist_flex_r	wrist_dev_r	arm_flex_l	arm_add_l	arm_rot_l	elbow_flex_l	pro_sup_l	wrist_flex_l	wrist_dev_l
      5.25000000	    -35.45051455	      5.97523269	      4.78495340	     -0.39250194	      0.66001398	     -1.01528516	     30.08630716	     -7.82032196	     -1.07542413	     84.83978859	      1.48073365	    -12.83770417	      0.00000000	      0.00000000	     90.18011483	      3.71016309	    -14.96259699	     87.84052929	      1.53310645	     23.44647680	      0.00000000	      0.00000000	     -5.67214167	    -11.54174844	     -2.98017855	     89.94798373	    -15.31281373	      3.82516830	     48.59907982	     76.67895405	      0.00000000	      0.00000000	     89.94962117	    -21.82806811	      7.11063175	     55.06439337	     82.08712532	      0.00000000	      0.00000000
      5.25500000	    -35.45827445	      5.97746268	      4.76222333	     -0.39245078	      0.65994648	     -1.01530293	     30.08698088	     -7.81877912	     -1.11464353	     84.81806440	      1.48035449	    -12.81284536	      0.00000000	      0.00000000	     90.18232920	      3.66845368	    -15.00077555	     87.84214454	      1.53313464	     23.46436668	      0.00000000	      0.00000000	     -5.65446036	    -11.56109443	     -2.97463644	     89.94793307	    -15.31419869	      3.85412418	     48.56205030	     76.99337167	      0.00000000	      0.00000000	     89.94960264	    -21.83065857	      7.13019203	     55.06556056	     81.89100876	      0.00000000	      0.00000000
      5.26000000	    -35.44459618	      5.96514620	      4.75399009	     -0.39236142	      0.65993335	     -1.01537305	     30.04126020	     -7.80371836	     -1.16706289	     84.77465404	      1.47959684	    -12.70148013	      0.00000000	      0.00000000	     90.17874500	      3.68846343	    -14.94741707	     87.87029360	      1.53362594	     23.44205876	      0.00000000	      0.00000000	     -5.66257727	    -11.55300867	     -2.99960021	     89.94789924	    -15.26568994	      4.08532293	     48.56786142	     74.53854856	      0.00000000	      0.00000000	     89.94966686	    -21.82486780	      7.34417304	     55.10881770	     78.85498574	      0.00000000	      0.00000000
      5.26500000	    -35.42393286	      6.02651576	      4.70131517	     -0.39227578	      0.65989902	     -1.01539129	     30.03859642	     -7.85760256	     -1.14027031	     84.77707924	      1.47963916	    -12.85666852	      0.00000000	      0.00000000	     90.14097291	      3.63913683	    -15.02764477	     87.88063905	      1.53380650	     23.53016187	      0.00000000	      0.00000000	     -5.67357454	    -11.60821693	     -2.98688006	     89.94781616	    -15.22872437	      4.34018871	     48.60015948	     72.75760220	      0.00000000	      0.00000000	     89.94956689	    -21.93903628	      7.62732007	     55.19330312	     76.87950765	      0.00000000	      0.00000000
      5.27000000	    -35.43539759	      6.02099292	      4.71294808	     -0.39220902	      0.65988700	     -1.01547618	     30.03357515	     -7.88207936	     -1.21266784	     84.76240733	      1.47938309	    -12.78227930	      0.00000000	      0.00000000	     90.15189511	      3.64304277	    -15.03438202	     87.88376190	      1.53386100	     23.47977126	      0.00000000	      0.00000000	     -5.65581859	    -11.60722719	     -3.02346834	     89.94780070	    -15.21600428	      4.01996750	     48.48147920	     76.39911133	      0.00000000	      0.00000000	     89.94947176	    -21.94928701	      7.12603183	     55.07970451	     82.18635388	      0.00000000	      0.00000000
      5.27500000	    -35.41156002	      6.03746179	      4.69166455	     -0.39211644	      0.65990183	     -1.01551195	     30.00735679	     -7.90658781	     -1.26557324	     84.74560948	      1.47908991	    -12.76608820	      0.00000000	      0.00000000	     90.12104404	      3.62239922	    -15.04558754	     87.89810045	      1.53411126	     23.51142554	      0.00000000	      0.00000000	     -5.66816953	    -11.62262361	     -3.03398626	     89.94769935	    -15.17713342	      3.94677890	     48.43487709	     77.22218552	      0.00000000	      0.00000000	     89.94956094	    -21.95840417	      7.11905809	     55.06046670	     82.01524753	      0.00000000	      0.00000000
      5.28000000	    -35.42046697	      5.94635201	      4.71601123	     -0.39208969	      0.65982746	     -1.01554398	     29.98535352	     -7.83181260	     -1.39442699	     84.73063083	      1.47882849	    -12.55135103	      0.00000000	      0.00000000	     90.16677430	      3.60278285	    -14.97780080	     87.94049650	      1.53485121	     23.39926875	      0.00000000	      0.00000000	     -5.62109625	    -11.53162853	     -3.06288290	     89.94781223	    -15.09784144	      4.13758423	     48.38706850	     74.92006239	      0.00000000	      0.00000000	     89.94952736	    -21.90086972	      7.27110870	     55.02064837	     79.19272980	      0.00000000	      0.00000000
      5.28500000	    -35.42568595	      5.91177923	      4.72207616	     -0.39203766	      0.65981553	     -1.01559038	     29.98023122	     -7.83964596	     -1.50616456	     84.70809600	      1.47843518	    -12.48484107	      0.00000000	      0.00000000	     90.19001963	      3.59838233	    -14.93907523	     87.97406018	      1.53543701	     23.36600026	      0.00000000	      0.00000000	     -5.60084364	    -11.50591207	     -3.08902722	     89.94783482	    -15.07724096	      4.34665992	     48.40917208	     72.81222037	      0.00000000	      0.00000000	     89.94925843	    -21.91089162	      7.43793041	     55.06874863	     76.75733058	      0.00000000	      0.00000000
      5.29000000	    -35.43340947	      5.99269683	      4.68596822	     -0.39196922	      0.65993098	     -1.01562126	     30.03229917	     -7.90900340	     -1.46673050	     84.70288087	      1.47834416	    -12.81832174	      0.00000000	      0.00000000	     90.12012979	      3.56697719	    -15.04880704	     87.89234318	      1.53401078	     23.47522438	      0.00000000	      0.00000000	     -5.59409844	    -11.58943591	     -3.12386434	     89.94764037	    -15.07970563	      4.10996175	     48.34382188	     76.97292294	      0.00000000	      0.00000000	     89.94944630	    -22.06654533	      7.09302587	     55.04636946	     82.17541971	      0.00000000	      0.00000000
      5.29500000	    -35.43276051	      5.90125628	      4.70940447	     -0.39191482	      0.65989424	     -1.01566840	     29.99345307	     -7.87447325	     -1.64572218	     84.69214791	      1.47815683	    -12.51308995	      0.00000000	      0.00000000	     90.17973484	      3.54418867	    -14.97138854	     87.99945950	      1.53588031	     23.34443409	      0.00000000	      0.00000000	     -5.55522137	    -11.50579647	     -3.15188181	     89.94756853	    -15.02976189	      4.26653407	     48.32474847	     74.66508195	      0.00000000	      0.00000000	     89.94933292	    -22.00160547	      7.21038076	     55.01985931	     79.26657151	      0.00000000	      0.00000000
      5.30000000	    -35.41018662	      5.89180578	      4.71614884	     -0.39180695	      0.66002607	     -1.01570854	     29.95534487	     -7.88229414	     -1.72915471	     84.66351564	      1.47765710	    -12.42505859	      0.00000000	      0.00000000	     90.12881296	      3.51232698	    -15.00189286	     87.97521399	      1.53545714	     23.29804426	      0.00000000	      0.00000000	     -5.55876239	    -11.49946968	     -3.18699917	     89.94766701	    -15.00810867	      4.49427430	     48.26756456	     72.62885285	      0.00000000	      0.00000000	     89.94926982	    -21.98977518	      7.35929123	     54.98933720	     76.89309492	      0.00000000	      0.00000000
      5.30500000	    -35.45297489	      5.92381958	      4.71654298	     -0.39180519	      0.66015919	     -1.01578968	     30.04830034	     -7.91501876	     -1.72086716	     84.65331923	      1.47747914	    -12.77562333	      0.00000000	      0.00000000	     90.08728566	      3.51960885	    -15.06184727	     87.84202486	      1.53313256	     23.50074288	      0.00000000	      0.00000000	     -5.51927197	    -11.54819661	     -3.23889702	     89.94747946	    -15.04972924	      4.26248976	     48.26542099	     77.01159609	      0.00000000	      0.00000000	     89.94924137	    -22.09794637	      7.07448090	     54.98154706	     82.19593322	      0.00000000	      0.00000000
      5.31000000	    -35.43019280	      5.87524306	      4.71223902	     -0.39167853	      0.66019226	     -1.01580623	     29.99794321	     -7.94673685	     -1.90557642	     84.64639927	      1.47735837	    -12.51483473	      0.00000000	      0.00000000	     90.11202398	      3.45997105	    -15.03651587	     87.96638153	      1.53530299	     23.30634803	      0.00000000	      0.00000000	     -5.49995798	    -11.49190406	     -3.25492600	     89.94741802	    -14.96073794	      4.40967130	     48.19716291	     74.84928069	      0.00000000	      0.00000000	     89.94930294	    -22.04912287	      7.12833600	     54.95855338	     79.49741663	      0.00000000	      0.00000000
      5.31500000	    -35.45096990	      5.83993095	      4.73783036	     -0.39165975	      0.66033468	     -1.01585863	     30.01776714	     -7.92666026	     -1.98911145	     84.61932699	      1.47688587	    -12.52749681	      0.00000000	      0.00000000	     90.10223147	      3.46720745	    -15.01930881	     87.89637426	      1.53408113	     23.29272404	      0.00000000	      0.00000000	     -5.44886226	    -11.46524056	     -3.30985100	     89.94732742	    -14.91563634	      4.62664560	     48.16132898	     72.74510654	      0.00000000	      0.00000000	     89.94939326	    -22.05087590	      7.32507654	     54.94216391	     77.00583258	      0.00000000	      0.00000000
